<?xml version="1.0" encoding="UTF-8"?>
<svg id="dialSvg" viewBox="0 0 218 218" xmlns="http://www.w3.org/2000/svg"><circle cx="109" cy="109" r="109" fill="#0c0c0c"/><circle cx="109" cy="109" r="109" fill="none" stroke="#1a1a1a" stroke-width="2"/><path d="M 73.43 206.73 A 104 104 0 0 1 25.58 171.10 L 33.60 165.13 A 94 94 0 0 0 76.85 197.33 Z" fill="#8b0000" opacity="0.9"/><path d="M 25.58 171.10 A 104 104 0 0 1 16.06 155.68 L 25.00 151.19 A 94 94 0 0 0 33.60 165.13 Z" fill="#9b2200" opacity="0.9"/><path d="M 16.06 155.68 A 104 104 0 0 1 6.58 127.06 L 16.43 125.32 A 94 94 0 0 0 25.00 151.19 Z" fill="#994400" opacity="0.9"/><path d="M 6.58 127.06 A 104 104 0 0 1 33.35 37.63 L 40.63 44.49 A 94 94 0 0 0 16.43 125.32 Z" fill="#3a6600" opacity="0.9"/><path d="M 33.35 37.63 A 104 104 0 0 1 62.32 16.06 L 66.81 25.00 A 94 94 0 0 0 40.63 44.49 Z" fill="#226622" opacity="0.9"/><path d="M 62.32 16.06 A 104 104 0 0 1 166.15 22.11 L 160.65 30.46 A 94 94 0 0 0 66.81 25.00 Z" fill="#1a5544" opacity="0.9"/><path d="M 166.15 22.11 A 104 104 0 0 1 204.49 67.81 L 195.31 71.77 A 94 94 0 0 0 160.65 30.46 Z" fill="#1a3355" opacity="0.9"/><path d="M 204.49 67.81 A 104 104 0 0 1 199.07 161.00 L 190.41 156.00 A 94 94 0 0 0 195.31 71.77 Z" fill="#221144" opacity="0.9"/><path d="M 73.09 207.67 A 105 105 0 1 1 144.91 207.67" fill="none" stroke="#333" stroke-width="1"/><line x1="77.19" y1="196.39" x2="83.01" y2="180.42" stroke="#e0e0e0" stroke-width="2"/><text x="87.79" y="167.26" font-family="Arial, Helvetica, sans-serif" font-size="10" font-weight="bold" fill="#ffffff" text-anchor="middle" dominant-baseline="middle" transform="rotate(-160.0,87.79,167.26)" style="paint-order:stroke;stroke:#000000;stroke-width:3.5px;stroke-linejoin:round">40</text><line x1="72.16" y1="194.39" x2="74.94" y2="187.97" stroke="#666" stroke-width="0.9"/><line x1="67.26" y1="192.11" x2="70.40" y2="185.85" stroke="#666" stroke-width="0.9"/><line x1="62.50" y1="189.54" x2="66.00" y2="183.48" stroke="#666" stroke-width="0.9"/><line x1="57.90" y1="186.70" x2="61.74" y2="180.85" stroke="#666" stroke-width="0.9"/><line x1="53.46" y1="183.60" x2="57.64" y2="177.98" stroke="#666" stroke-width="0.9"/><line x1="49.22" y1="180.24" x2="53.72" y2="174.88" stroke="#666" stroke-width="0.9"/><line x1="45.18" y1="176.65" x2="49.98" y2="171.55" stroke="#666" stroke-width="0.9"/><line x1="41.35" y1="172.82" x2="46.45" y2="168.02" stroke="#666" stroke-width="0.9"/><line x1="37.76" y1="168.78" x2="43.12" y2="164.28" stroke="#666" stroke-width="0.9"/><line x1="34.40" y1="164.54" x2="48.04" y2="154.38" stroke="#e0e0e0" stroke-width="2"/><text x="59.27" y="146.02" font-family="Arial, Helvetica, sans-serif" font-size="10" font-weight="bold" fill="#ffffff" text-anchor="middle" dominant-baseline="middle" transform="rotate(-126.7,59.27,146.02)" style="paint-order:stroke;stroke:#000000;stroke-width:3.5px;stroke-linejoin:round">60</text><line x1="29.85" y1="157.82" x2="35.80" y2="154.15" stroke="#666" stroke-width="0.9"/><line x1="25.89" y1="150.74" x2="32.15" y2="147.60" stroke="#666" stroke-width="0.9"/><line x1="22.57" y1="143.34" x2="29.08" y2="140.75" stroke="#666" stroke-width="0.9"/><line x1="19.91" y1="135.67" x2="26.61" y2="133.67" stroke="#666" stroke-width="0.9"/><line x1="17.41" y1="125.15" x2="24.31" y2="123.93" stroke="#666" stroke-width="0.9"/><line x1="16.16" y1="114.41" x2="33.13" y2="113.42" stroke="#e0e0e0" stroke-width="2"/><text x="47.10" y="112.60" font-family="Arial, Helvetica, sans-serif" font-size="10" font-weight="bold" fill="#ffffff" text-anchor="middle" dominant-baseline="middle" transform="rotate(-93.3,47.10,112.60)" style="paint-order:stroke;stroke:#000000;stroke-width:3.5px;stroke-linejoin:round">80</text><line x1="16.16" y1="103.59" x2="23.15" y2="104.00" stroke="#666" stroke-width="0.9"/><line x1="17.41" y1="92.85" x2="24.31" y2="94.07" stroke="#666" stroke-width="0.9"/><line x1="19.91" y1="82.33" x2="26.61" y2="84.33" stroke="#666" stroke-width="0.9"/><line x1="23.61" y1="72.16" x2="30.03" y2="74.94" stroke="#666" stroke-width="0.9"/><line x1="28.46" y1="62.50" x2="43.18" y2="71.00" stroke="#e0e0e0" stroke-width="2"/><text x="55.31" y="78.00" font-family="Arial, Helvetica, sans-serif" font-size="10" font-weight="bold" fill="#ffffff" text-anchor="middle" dominant-baseline="middle" transform="rotate(-60.0,55.31,78.00)" style="paint-order:stroke;stroke:#000000;stroke-width:3.5px;stroke-linejoin:round">100</text><line x1="34.40" y1="53.46" x2="40.02" y2="57.64" stroke="#666" stroke-width="0.9"/><line x1="41.35" y1="45.18" x2="46.45" y2="49.98" stroke="#666" stroke-width="0.9"/><line x1="49.22" y1="37.76" x2="53.72" y2="43.12" stroke="#666" stroke-width="0.9"/><line x1="57.90" y1="31.30" x2="61.74" y2="37.15" stroke="#666" stroke-width="0.9"/><line x1="67.26" y1="25.89" x2="74.89" y2="41.08" stroke="#e0e0e0" stroke-width="2"/><text x="81.17" y="53.59" font-family="Arial, Helvetica, sans-serif" font-size="10" font-weight="bold" fill="#ffffff" text-anchor="middle" dominant-baseline="middle" transform="rotate(-26.7,81.17,53.59)" style="paint-order:stroke;stroke:#000000;stroke-width:3.5px;stroke-linejoin:round">120</text><line x1="82.33" y1="19.91" x2="84.33" y2="26.61" stroke="#666" stroke-width="0.9"/><line x1="98.20" y1="16.63" x2="99.02" y2="23.58" stroke="#666" stroke-width="0.9"/><line x1="114.41" y1="16.16" x2="114.00" y2="23.15" stroke="#666" stroke-width="0.9"/><line x1="130.45" y1="18.51" x2="126.53" y2="35.05" stroke="#e0e0e0" stroke-width="2"/><text x="123.30" y="48.67" font-family="Arial, Helvetica, sans-serif" font-size="10" font-weight="bold" fill="#ffffff" text-anchor="middle" dominant-baseline="middle" transform="rotate(13.3,123.30,48.67)" style="paint-order:stroke;stroke:#000000;stroke-width:3.5px;stroke-linejoin:round">144</text><line x1="150.74" y1="25.89" x2="147.60" y2="32.15" stroke="#666" stroke-width="0.9"/><line x1="168.78" y1="37.76" x2="157.85" y2="50.78" stroke="#e0e0e0" stroke-width="2"/><text x="148.85" y="61.51" font-family="Arial, Helvetica, sans-serif" font-size="10" font-weight="bold" fill="#ffffff" text-anchor="middle" dominant-baseline="middle" transform="rotate(40.0,148.85,61.51)" style="paint-order:stroke;stroke:#000000;stroke-width:3.5px;stroke-linejoin:round">160</text><line x1="183.60" y1="53.46" x2="177.98" y2="57.64" stroke="#666" stroke-width="0.9"/><line x1="194.39" y1="72.16" x2="178.78" y2="78.90" stroke="#e0e0e0" stroke-width="2"/><text x="165.93" y="84.44" font-family="Arial, Helvetica, sans-serif" font-size="10" font-weight="bold" fill="#ffffff" text-anchor="middle" dominant-baseline="middle" transform="rotate(66.7,165.93,84.44)" style="paint-order:stroke;stroke:#000000;stroke-width:3.5px;stroke-linejoin:round">176</text><line x1="200.59" y1="92.85" x2="193.69" y2="94.07" stroke="#666" stroke-width="0.9"/><line x1="201.84" y1="114.41" x2="184.87" y2="113.42" stroke="#e0e0e0" stroke-width="2"/><text x="170.90" y="112.60" font-family="Arial, Helvetica, sans-serif" font-size="10" font-weight="bold" fill="#ffffff" text-anchor="middle" dominant-baseline="middle" transform="rotate(93.3,170.90,112.60)" style="paint-order:stroke;stroke:#000000;stroke-width:3.5px;stroke-linejoin:round">192</text><line x1="198.09" y1="135.67" x2="191.39" y2="133.67" stroke="#666" stroke-width="0.9"/><line x1="189.54" y1="155.50" x2="174.82" y2="147.00" stroke="#e0e0e0" stroke-width="2"/><text x="162.69" y="140.00" font-family="Arial, Helvetica, sans-serif" font-size="10" font-weight="bold" fill="#ffffff" text-anchor="middle" dominant-baseline="middle" transform="rotate(120.0,162.69,140.00)" style="paint-order:stroke;stroke:#000000;stroke-width:3.5px;stroke-linejoin:round">208</text><line x1="176.65" y1="172.82" x2="171.55" y2="168.02" stroke="#666" stroke-width="0.9"/><line x1="160.10" y1="186.70" x2="156.26" y2="180.85" stroke="#666" stroke-width="0.9"/><line x1="140.81" y1="196.39" x2="134.99" y2="180.42" stroke="#e0e0e0" stroke-width="2"/><text x="130.21" y="167.26" font-family="Arial, Helvetica, sans-serif" font-size="10" font-weight="bold" fill="#ffffff" text-anchor="middle" dominant-baseline="middle" transform="rotate(160.0,130.21,167.26)" style="paint-order:stroke;stroke:#000000;stroke-width:3.5px;stroke-linejoin:round">232</text><circle cx="75.14" cy="202.03" r="2.5" fill="#888"/><circle cx="142.86" cy="202.03" r="2.5" fill="#888"/><circle cx="109" cy="109" r="50" fill="#111" stroke="#2a2a2a" stroke-width="1"/><circle cx="109" cy="109" r="46" fill="#0d0d0d" stroke="#1a1a1a" stroke-width="0.5"/><circle cx="109" cy="109" r="4" fill="#222" stroke="#444" stroke-width="1"/><circle cx="109" cy="109" r="2" fill="#666"/></svg>